<?xml version="1.0" standalone="no"?><!DOCTYPE svg PUBLIC "-//W3C//DTD SVG 1.1//EN" "http://www.w3.org/Graphics/SVG/1.1/DTD/svg11.dtd"><svg t="1695352892341" class="icon" viewBox="0 0 1024 1024" version="1.1" xmlns="http://www.w3.org/2000/svg" p-id="1450" xmlns:xlink="http://www.w3.org/1999/xlink" width="200" height="200"><path d="M718.848 475.353212h-165.825939V309.496242a8.750545 8.750545 0 0 0-8.719516-8.719515h-52.379151a8.750545 8.750545 0 0 0-8.719515 8.688485v165.85697h-165.82594a8.750545 8.750545 0 0 0-8.719515 8.688485v52.379151c0 4.809697 3.909818 8.750545 8.719515 8.750546h165.82594v165.794909c0 4.809697 3.909818 8.750545 8.719515 8.750545h52.379151a8.750545 8.750545 0 0 0 8.688485-8.750545V545.202424h165.85697a8.750545 8.750545 0 0 0 8.688485-8.750545V484.072727a8.750545 8.750545 0 0 0-8.688485-8.719515z" fill="#000000" fill-opacity=".85" p-id="1451"></path><path d="M518.11297 21.47297C248.211394 21.47297 29.385697 240.298667 29.385697 510.200242s218.825697 488.727273 488.727273 488.727273 488.727273-218.825697 488.727272-488.727273S788.014545 21.47297 518.11297 21.47297z m0 894.541575c-224.069818 0-405.814303-181.744485-405.814303-405.814303 0-224.069818 181.744485-405.814303 405.814303-405.814303 224.069818 0 405.814303 181.744485 405.814303 405.814303 0 224.069818-181.744485 405.814303-405.814303 405.814303z" fill="#000000" fill-opacity=".85" p-id="1452"></path></svg>