<?xml version="1.0" standalone="no"?><!DOCTYPE svg PUBLIC "-//W3C//DTD SVG 1.1//EN" "http://www.w3.org/Graphics/SVG/1.1/DTD/svg11.dtd"><svg t="1724831051169" class="icon" viewBox="0 0 1024 1024" version="1.1" xmlns="http://www.w3.org/2000/svg" p-id="6440" xmlns:xlink="http://www.w3.org/1999/xlink" width="200" height="200"><path d="M948.3 100.2v508.4c0 30.5-7.2 60.8-21.7 91-14.5 30.2-33.4 59.4-56.8 87.8-23.4 28.3-50.2 55.2-80.3 80.5-30.1 25.3-60.6 47.9-91.5 67.7-31 19.8-61 36.3-90.2 49.4-29.2 13.1-54.8 22.1-76.8 27l-10.4 1.8-9.5-1.8c-22.6-4.9-48.7-13.9-78.5-27-29.8-13.1-60.7-29.6-92.8-49.4-32.1-19.8-63.6-42.3-94.6-67.7-30.9-25.3-58.6-52.1-82.9-80.5-24.3-28.4-43.9-57.6-59-87.8-15.1-30.1-22.6-60.5-22.6-91V100.2l35.6-5.5L515.4 16l406.9 78.6 26 5.6zM515.5 89.6l-4.8-1L168.2 150v320.8h347.3V89.6z m345.4 381.2H515.5v456.6c22.2-5.4 46.4-13.6 72.5-24.6 26.1-11.1 51.8-24.1 77.3-39.2 25.5-15.1 49.9-31.8 73.5-50.3 23.6-18.4 44.3-38.3 62.5-59.4 18.1-21.1 32.6-43 43.4-65.8 10.8-22.8 16.2-45.9 16.2-69.4V470.8z m0 0" p-id="6441"></path></svg>